<svg id="Layer_3" enable-background="new 0 0 64 64" height="512" viewBox="0 0 64 64" width="512" xmlns="http://www.w3.org/2000/svg"><g><path d="m62 23h-4v-1c0-1.654-1.346-3-3-3h-5v-8c0-.314-.148-.611-.4-.8l-3.6-2.7v-5.5c0-.553-.447-1-1-1h-26c-.553 0-1 .447-1 1v5.5l-3.6 2.7c-.252.189-.4.486-.4.8v8h-5c-1.654 0-3 1.346-3 3v1h-4c-.553 0-1 .447-1 1v18c0 .553.447 1 1 1h7 9v19c0 .553.447 1 1 1h26c.553 0 1-.447 1-1v-19h9 7c.553 0 1-.447 1-1v-18c0-.553-.447-1-1-1zm-1 2v6h-3v-6zm-13-13.5v7.5h-2v-9zm-28-8.5h24v16h-24zm-4 8.5 2-1.5v9h-2zm-10 13.5v6h-3v-6zm-3 8h3v7c0 .352.072.686.184 1h-3.184zm41 28h-24v-26h24zm-25-28c-.553 0-1 .447-1 1v3h-2v-6h32v6h-2v-3c0-.553-.447-1-1-1zm27 8v-2h3c.553 0 1-.447 1-1v-8c0-.553-.447-1-1-1h-34c-.553 0-1 .447-1 1v8c0 .553.447 1 1 1h3v2h-9c-.552 0-1-.448-1-1v-18c0-.552.448-1 1-1h10 26 10c.552 0 1 .448 1 1v18c0 .552-.448 1-1 1zm11.816 0c.112-.314.184-.648.184-1v-7h3v8z"/><path d="m22 38h20v2h-20z"/><path d="m22 42h20v2h-20z"/><path d="m22 46h20v2h-20z"/><path d="m36 57h6v2h-6z"/></g></svg>